<svg width="19" height="19" viewBox="0 0 19 19" fill="none" xmlns="http://www.w3.org/2000/svg">
<path d="M9.49985 3.67333C11.2837 3.67333 12.4871 4.44389 13.1732 5.08778L15.8543 2.47C14.2076 0.939444 12.0649 0 9.49985 0C5.7843 0 2.57541 2.13222 1.01318 5.23556L4.08485 7.62111C4.85541 5.33056 6.98763 3.67333 9.49985 3.67333Z" fill="#EA4335"/>
<path d="M18.62 9.71127C18.62 8.93015 18.5567 8.36015 18.4194 7.76904H9.5V11.2946H14.7356C14.63 12.1707 14.06 13.4902 12.7933 14.3768L15.7911 16.699C17.5856 15.0418 18.62 12.6035 18.62 9.71127Z" fill="#4285F4"/>
<path d="M4.09556 11.3789C3.895 10.7878 3.77889 10.1544 3.77889 9.49998C3.77889 8.84553 3.895 8.2122 4.085 7.62109L1.01333 5.23553C0.369444 6.52331 0 7.96942 0 9.49998C0 11.0305 0.369444 12.4766 1.01333 13.7644L4.09556 11.3789Z" fill="#FBBC05"/>
<path d="M9.50004 19C12.065 19 14.2184 18.1556 15.7911 16.6989L12.7934 14.3767C11.9911 14.9361 10.9145 15.3267 9.50004 15.3267C6.98781 15.3267 4.85559 13.6695 4.09559 11.3789L1.02393 13.7645C2.58615 16.8678 5.78448 19 9.50004 19Z" fill="#34A853"/>
</svg>
