<svg width="14" height="14" viewBox="0 0 14 14" fill="none" xmlns="http://www.w3.org/2000/svg">
<path d="M6.19193 1.55121C6.54489 0.916524 7.4548 0.916524 7.80776 1.55121L9.12749 3.92428C9.25986 4.1623 9.48976 4.32993 9.75623 4.38272L12.413 4.909C13.1235 5.04976 13.4047 5.91821 12.9123 6.45122L11.0712 8.44415C10.8865 8.64404 10.7987 8.91527 10.831 9.18591L11.1533 11.8842C11.2394 12.6059 10.5033 13.1427 9.84602 12.8374L7.38843 11.696C7.14193 11.5815 6.85776 11.5815 6.61126 11.696L4.15367 12.8374C3.49638 13.1427 2.76025 12.6059 2.84643 11.8842L3.16866 9.18591C3.20098 8.91527 3.11316 8.64404 2.9285 8.44415L1.08739 6.45122C0.594985 5.91821 0.876163 5.04976 1.58671 4.909L4.24345 4.38272C4.50993 4.32993 4.73983 4.1623 4.8722 3.92428L6.19193 1.55121Z" fill="#FED07A"/>
</svg>
