<svg width="12" height="11" viewBox="0 0 12 11" fill="none" xmlns="http://www.w3.org/2000/svg">
<path fill-rule="evenodd" clip-rule="evenodd" d="M10.8 3.85005C10.8 2.82337 10.488 1.10002 8.4 1.10002C7.41 1.10002 7.047 1.59013 6.5664 2.3962L6.5262 2.46465C6.3156 2.81665 5.6844 2.81665 5.4738 2.46465L5.4336 2.3962C4.953 1.58952 4.59 1.10002 3.6 1.10002C1.512 1.10002 1.2 2.82337 1.2 3.85005C1.2 7.23871 4.9746 9.32752 5.9994 9.8323C7.023 9.32569 10.8 7.22893 10.8 3.84944V3.85005ZM12 3.85005C12 8.44567 6.4878 10.8486 6.2532 10.9482C6.093 11.0173 5.907 11.0173 5.7468 10.9482C5.5122 10.8486 0 8.44506 0 3.85005C0 1.47524 1.3794 0 3.6 0C4.839 0 5.5392 0.548785 6 1.13363C6.4608 0.548785 7.1616 0 8.4 0C10.6206 0 12 1.47524 12 3.85005Z" fill="#B4B4B4"/>
</svg>
