<svg width="13" height="14" viewBox="0 0 13 14" fill="none" xmlns="http://www.w3.org/2000/svg">
<path d="M1.34444 12.1C1.34444 12.4566 1.48609 12.7985 1.73822 13.0507C1.99036 13.3028 2.33232 13.4444 2.68889 13.4444H9.41111C9.76768 13.4444 10.1096 13.3028 10.3618 13.0507C10.6139 12.7985 10.7556 12.4566 10.7556 12.1V4.03333H11.4278C11.799 4.03333 12.1 3.73237 12.1 3.36111C12.1 2.98985 11.799 2.68889 11.4278 2.68889H9.41111V1.34444C9.41111 0.987876 9.26947 0.645911 9.01733 0.393779C8.7652 0.141646 8.42324 0 8.06667 0H4.03333C3.67676 0 3.3348 0.141646 3.08267 0.393779C2.83054 0.645911 2.68889 0.987876 2.68889 1.34444V2.68889H0.672222C0.300964 2.68889 0 2.98985 0 3.36111C0 3.73237 0.300964 4.03333 0.672222 4.03333H1.34444V12.1ZM4.03333 1.34444H8.06667V2.68889H4.03333V1.34444ZM3.36111 4.03333H9.41111V12.1H2.68889V4.03333H3.36111Z" fill="#B4B4B4"/>
<path d="M4.03381 6.04997C4.03381 5.67871 4.33478 5.37775 4.70604 5.37775C5.07729 5.37775 5.37826 5.67871 5.37826 6.04997V10.0833C5.37826 10.4546 5.07729 10.7555 4.70604 10.7555C4.33478 10.7555 4.03381 10.4546 4.03381 10.0833V6.04997ZM6.7227 6.04997C6.7227 5.67871 7.02367 5.37775 7.39493 5.37775C7.76618 5.37775 8.06715 5.67871 8.06715 6.04997V10.0833C8.06715 10.4546 7.76618 10.7555 7.39493 10.7555C7.02367 10.7555 6.7227 10.4546 6.7227 10.0833V6.04997Z" fill="#B4B4B4"/>
</svg>
