<svg width="25" height="25" viewBox="0 0 25 25" fill="none" xmlns="http://www.w3.org/2000/svg">
<path fill-rule="evenodd" clip-rule="evenodd" d="M15.9757 8.15628C17.4119 10.4124 16.7242 13.3917 14.432 14.8115C12.1367 16.2333 9.10926 15.5483 7.67097 13.2889C6.23478 11.0327 6.92251 8.0535 9.21467 6.63368C11.51 5.21188 14.5374 5.89683 15.9757 8.15628ZM5.20017 14.8309C7.42932 18.3328 12.0355 19.4597 15.6461 17.4595L19.2678 21.3359C19.8143 21.9209 20.7353 21.9575 21.3275 21.4191C21.9228 20.8779 21.9612 19.9602 21.4118 19.3721L17.8889 15.6015C19.9495 13.1056 20.2793 9.49345 18.4465 6.61425C16.1479 3.00319 11.3215 1.91749 7.66567 4.182C4.00665 6.44848 2.8994 11.2166 5.20017 14.8309Z" fill="#FED07A"/>
</svg>
