<svg width="74" height="74" viewBox="0 0 74 74" fill="none" xmlns="http://www.w3.org/2000/svg">
<path d="M37 0C16.9423 0 0 16.9423 0 37C0 57.0577 16.9423 74 37 74C57.0577 74 74 57.0577 74 37C74 16.9423 57.0577 0 37 0ZM37 18.5C43.3899 18.5 48.1 23.2064 48.1 29.6C48.1 35.9936 43.3899 40.7 37 40.7C30.6138 40.7 25.9 35.9936 25.9 29.6C25.9 23.2064 30.6138 18.5 37 18.5ZM18.1078 54.6564C21.4267 49.7724 26.9619 46.5164 33.3 46.5164H40.7C47.0418 46.5164 52.5733 49.7724 55.8922 54.6564C51.1636 59.718 44.4555 62.9 37 62.9C29.5445 62.9 22.8364 59.718 18.1078 54.6564Z" fill="#D2D2D2"/>
</svg>
