<svg width="21" height="23" viewBox="0 0 21 23" fill="none" xmlns="http://www.w3.org/2000/svg">
<path d="M18.9934 12.0871V11.5V10.9052L20.4766 9.60737C20.75 9.36639 20.9294 9.03652 20.9831 8.67605C21.0368 8.31559 20.9614 7.94774 20.7701 7.63751L18.9471 4.54754C18.8116 4.31291 18.6168 4.11802 18.3822 3.98244C18.1477 3.84685 17.8816 3.77533 17.6106 3.77505C17.4427 3.77377 17.2757 3.79986 17.1162 3.8523L15.2391 4.48575C14.915 4.27038 14.5769 4.07683 14.2271 3.90638L13.8332 1.95969C13.7625 1.60404 13.569 1.28457 13.2866 1.05719C13.0041 0.82982 12.6507 0.709035 12.2882 0.715982H8.6729C8.31037 0.709035 7.95694 0.82982 7.67449 1.05719C7.39204 1.28457 7.19856 1.60404 7.12792 1.95969L6.73395 3.90638C6.38164 4.07679 6.041 4.27033 5.71426 4.48575L3.87572 3.8214C3.7145 3.7794 3.54755 3.76374 3.38133 3.77505C3.1104 3.77533 2.8443 3.84685 2.60973 3.98244C2.37517 4.11802 2.18038 4.31291 2.04492 4.54754L0.221834 7.63751C0.0415243 7.94728 -0.0254781 8.31009 0.0323024 8.66382C0.090083 9.01755 0.269051 9.34019 0.538556 9.57647L1.99857 10.9129V12.0948L0.538556 13.3926C0.261439 13.6305 0.0775752 13.9589 0.0195944 14.3195C-0.0383864 14.6801 0.0332654 15.0496 0.221834 15.3624L2.04492 18.4524C2.18038 18.687 2.37517 18.8819 2.60973 19.0175C2.8443 19.1531 3.1104 19.2246 3.38133 19.2249C3.54923 19.2262 3.71622 19.2001 3.87572 19.1477L5.75288 18.5142C6.07697 18.7296 6.41504 18.9231 6.76485 19.0936L7.15882 21.0403C7.22946 21.3959 7.42294 21.7154 7.70539 21.9428C7.98784 22.1701 8.34127 22.2909 8.7038 22.284H12.35C12.7125 22.2909 13.0659 22.1701 13.3484 21.9428C13.6308 21.7154 13.8243 21.3959 13.8949 21.0403L14.2889 19.0936C14.6412 18.9232 14.9819 18.7296 15.3086 18.5142L17.178 19.1477C17.3375 19.2001 17.5045 19.2262 17.6724 19.2249C17.9434 19.2246 18.2095 19.1531 18.444 19.0175C18.6786 18.8819 18.8734 18.687 19.0089 18.4524L20.7701 15.3624C20.9504 15.0527 21.0174 14.6899 20.9597 14.3361C20.9019 13.9824 20.7229 13.6598 20.4534 13.4235L18.9934 12.0871ZM17.6106 17.6799L14.961 16.7838C14.3407 17.3092 13.6318 17.7199 12.8675 17.9966L12.3191 20.7699H8.6729L8.12443 18.0275C7.36617 17.7429 6.66111 17.333 6.0387 16.8147L3.38133 17.6799L1.55825 14.5899L3.65943 12.736C3.51659 11.9363 3.51659 11.1177 3.65943 10.3181L1.55825 8.41001L3.38133 5.32004L6.03098 6.21613C6.65124 5.69075 7.36013 5.28006 8.12443 5.00332L8.6729 2.23007H12.3191L12.8675 4.97242C13.6258 5.25702 14.3309 5.667 14.9533 6.18523L17.6106 5.32004L19.4337 8.41001L17.3325 10.264C17.4754 11.0636 17.4754 11.8823 17.3325 12.6819L19.4337 14.5899L17.6106 17.6799Z" fill="black"/>
<path d="M10.5 15.2797C9.7524 15.2797 9.0216 15.058 8.4 14.6427C7.77839 14.2273 7.29391 13.637 7.00782 12.9463C6.72173 12.2556 6.64688 11.4956 6.79272 10.7624C6.93857 10.0292 7.29857 9.35565 7.8272 8.82702C8.35583 8.29839 9.02935 7.93839 9.76257 7.79254C10.4958 7.64669 11.2558 7.72155 11.9465 8.00764C12.6372 8.29373 13.2275 8.77821 13.6429 9.39981C14.0582 10.0214 14.2799 10.7522 14.2799 11.4998C14.285 11.9976 14.1906 12.4914 14.0025 12.9523C13.8143 13.4132 13.5361 13.8319 13.1841 14.1839C12.832 14.5359 12.4133 14.8141 11.9525 15.0023C11.4916 15.1905 10.9978 15.2848 10.5 15.2797ZM10.5 8.97988C10.167 8.97212 9.8358 9.032 9.52656 9.15589C9.21732 9.27978 8.93642 9.46511 8.70086 9.70068C8.4653 9.93624 8.27997 10.2171 8.15607 10.5264C8.03218 10.8356 7.9723 11.1668 7.98006 11.4998C7.9723 11.8329 8.03218 12.164 8.15607 12.4733C8.27997 12.7825 8.4653 13.0634 8.70086 13.299C8.93642 13.5345 9.21732 13.7198 9.52656 13.8437C9.8358 13.9676 10.167 14.0275 10.5 14.0197C10.833 14.0275 11.1642 13.9676 11.4734 13.8437C11.7827 13.7198 12.0636 13.5345 12.2991 13.299C12.5347 13.0634 12.72 12.7825 12.8439 12.4733C12.9678 12.164 13.0277 11.8329 13.0199 11.4998C13.0277 11.1668 12.9678 10.8356 12.8439 10.5264C12.72 10.2171 12.5347 9.93624 12.2991 9.70068C12.0636 9.46511 11.7827 9.27978 11.4734 9.15589C11.1642 9.032 10.833 8.97212 10.5 8.97988Z" fill="black"/>
</svg>
