<svg width="25" height="25" viewBox="0 0 25 25" fill="none" xmlns="http://www.w3.org/2000/svg">
<path fill-rule="evenodd" clip-rule="evenodd" d="M7.41437 3.58594C6.63312 2.80469 5.367 2.80469 4.58575 3.58594C3.80475 4.3667 3.80475 5.6333 4.58575 6.41406L10.1717 12L4.58575 17.5859C3.80475 18.3667 3.80475 19.6333 4.58575 20.4141C5.367 21.1953 6.63312 21.1953 7.41437 20.4141L13.0001 14.8286L18.5858 20.4141C19.367 21.1953 20.6331 21.1953 21.4144 20.4141C22.1954 19.6333 22.1954 18.3667 21.4144 17.5859L15.8284 12L21.4144 6.41406C22.1954 5.6333 22.1954 4.3667 21.4144 3.58594C20.6331 2.80469 19.367 2.80469 18.5858 3.58594L13.0001 9.17139L7.41437 3.58594Z" fill="black"/>
</svg>
