<svg width="25" height="25" viewBox="0 0 25 25" fill="none" xmlns="http://www.w3.org/2000/svg">
<path d="M22.5 17.071C22.4996 18.4385 22.0321 19.7649 21.175 20.8306C20.469 21.7084 19.5336 22.3659 18.4792 22.7346C18.0929 22.8697 17.6888 22.6363 17.5593 22.248L17.4456 21.9069C17.29 21.4399 17.5945 20.9485 18.0484 20.758C18.3032 20.6509 18.5471 20.5175 18.7758 20.3593C19.2627 20.0224 19.6689 19.5817 19.965 19.069H17.5C16.9696 19.069 16.4609 18.8583 16.0858 18.4832C15.7107 18.1081 15.5 17.5994 15.5 17.069V13.069C15.5 12.5385 15.7107 12.0298 16.0858 11.6548C16.4609 11.2797 16.9696 11.069 17.5 11.069H20.438C20.194 9.13587 19.2529 7.35824 17.7914 6.06965C16.3299 4.78105 14.4484 4.07005 12.5 4.07005C10.5516 4.07005 8.67007 4.78105 7.20857 6.06965C5.74708 7.35824 4.80603 9.13587 4.562 11.069H7.5C8.03043 11.069 8.53914 11.2797 8.91421 11.6548C9.28929 12.0298 9.5 12.5385 9.5 13.069V17.069C9.5 17.5994 9.28929 18.1081 8.91421 18.4832C8.53914 18.8583 8.03043 19.069 7.5 19.069H4.5C3.96957 19.069 3.46086 18.8583 3.08579 18.4832C2.71071 18.1081 2.5 17.5994 2.5 17.069V12.069C2.5 6.54597 6.977 2.06897 12.5 2.06897C18.023 2.06897 22.5 6.54597 22.5 12.069V17.071Z" fill="black"/>
</svg>
