<svg width="25" height="25" viewBox="0 0 25 25" fill="none" xmlns="http://www.w3.org/2000/svg">
<path d="M21.5 5.59216H3.5C2.94781 5.59216 2.5 6.03408 2.5 6.57901V18.4211C2.5 18.966 2.94781 19.408 3.5 19.408H21.5C22.0522 19.408 22.5 18.966 22.5 18.4211V6.57901C22.5 6.03408 22.0522 5.59216 21.5 5.59216ZM8 14.7168V15.2139C8 15.3502 7.88812 15.4606 7.75 15.4606H7.25C7.11188 15.4606 7 15.3502 7 15.2139V14.7115C6.64719 14.6936 6.30406 14.5721 6.01969 14.3615C5.89781 14.2711 5.89156 14.091 6.00187 13.9871L6.36906 13.6414C6.45562 13.56 6.58437 13.5563 6.68563 13.6189C6.80656 13.6935 6.94375 13.7336 7.08625 13.7336H7.96469C8.16781 13.7336 8.33344 13.551 8.33344 13.3268C8.33344 13.1434 8.22062 12.9818 8.05937 12.9343L6.65312 12.5179C6.07219 12.3459 5.66625 11.7957 5.66625 11.1798C5.66625 10.4237 6.26156 9.80937 6.99969 9.78994V9.29282C6.99969 9.15651 7.11156 9.04611 7.24969 9.04611H7.74969C7.88781 9.04611 7.99969 9.15651 7.99969 9.29282V9.79519C8.3525 9.81307 8.69562 9.93427 8.98 10.1452C9.10187 10.2356 9.10812 10.4157 8.99781 10.5196L8.63062 10.8653C8.54406 10.9467 8.41531 10.9504 8.31406 10.8878C8.19313 10.8129 8.05594 10.7731 7.91344 10.7731H7.035C6.83187 10.7731 6.66625 10.9556 6.66625 11.1798C6.66625 11.3633 6.77906 11.5249 6.94031 11.5724L8.34656 11.9887C8.9275 12.1608 9.33344 12.711 9.33344 13.3268C9.33344 14.0833 8.73812 14.6973 8 14.7168ZM15.5 14.227C15.5 14.3633 15.3881 14.4737 15.25 14.4737H11.75C11.6119 14.4737 11.5 14.3633 11.5 14.227V13.7336C11.5 13.5973 11.6119 13.4869 11.75 13.4869H15.25C15.3881 13.4869 15.5 13.5973 15.5 13.7336V14.227ZM20.5 14.227C20.5 14.3633 20.3881 14.4737 20.25 14.4737H17.75C17.6119 14.4737 17.5 14.3633 17.5 14.227V13.7336C17.5 13.5973 17.6119 13.4869 17.75 13.4869H20.25C20.3881 13.4869 20.5 13.5973 20.5 13.7336V14.227ZM20.5 11.2665C20.5 11.4028 20.3881 11.5132 20.25 11.5132H11.75C11.6119 11.5132 11.5 11.4028 11.5 11.2665V10.7731C11.5 10.6368 11.6119 10.5264 11.75 10.5264H20.25C20.3881 10.5264 20.5 10.6368 20.5 10.7731V11.2665Z" fill="black"/>
</svg>
