<svg width="25" height="25" viewBox="0 0 25 25" fill="none" xmlns="http://www.w3.org/2000/svg">
<path fill-rule="evenodd" clip-rule="evenodd" d="M1 4.9C1 3.85066 1.85812 3 2.91667 3H22.0833C23.1419 3 24 3.85066 24 4.9C24 5.94934 23.1419 6.8 22.0833 6.8H2.91667C1.85812 6.8 1 5.94934 1 4.9ZM1 12.5C1 11.4507 1.85812 10.6 2.91667 10.6H22.0833C23.1419 10.6 24 11.4507 24 12.5C24 13.5493 23.1419 14.4 22.0833 14.4H2.91667C1.85812 14.4 1 13.5493 1 12.5ZM2.91667 18.2C1.85812 18.2 1 19.0507 1 20.1C1 21.1493 1.85812 22 2.91667 22H22.0833C23.1419 22 24 21.1493 24 20.1C24 19.0507 23.1419 18.2 22.0833 18.2H2.91667Z" fill="black"/>
</svg>
