<svg width="25" height="25" viewBox="0 0 25 25" fill="none" xmlns="http://www.w3.org/2000/svg">
<path fill-rule="evenodd" clip-rule="evenodd" d="M13.3575 19.0734L13.3476 19.0692C13.3509 19.0706 13.3542 19.072 13.3575 19.0734ZM13 18.9127C12.2834 18.5759 10.5819 17.7045 8.91841 16.3262C6.76361 14.5407 5 12.187 5 9.30009C5 7.74841 5.45336 6.70949 6.06041 6.07207C6.65676 5.4459 7.59733 5 9 5C9.7283 5 10.2098 5.15465 10.5459 5.33372C10.8911 5.51764 11.1758 5.77733 11.4402 6.10679L13 8.05052L14.5598 6.10679C14.824 5.77765 15.1088 5.51784 15.4543 5.3338C15.7907 5.15459 16.2723 5 17 5C18.4027 5 19.3432 5.4459 19.9396 6.07207C20.5466 6.70949 21 7.74841 21 9.30009C21 12.1876 19.2363 14.5413 17.0816 16.3265C15.4182 17.7047 13.7168 18.5759 13 18.9127ZM13.422 20.9153C13.813 20.7522 23 16.8202 23 9.30009C23 5.41403 20.701 3 17 3C15.9746 3 15.1704 3.22162 14.5265 3.562C13.8742 3.90679 13.3865 4.37344 13 4.85503C12.6135 4.37337 12.1259 3.90667 11.4736 3.56186C10.8299 3.22156 10.0257 3 9 3C5.299 3 3 5.41403 3 9.30009C3 16.8192 12.187 20.7522 12.578 20.9153C12.845 21.0283 13.155 21.0283 13.422 20.9153Z" fill="white"/>
</svg>
