<svg width="65" height="75" viewBox="0 0 65 75" fill="none" xmlns="http://www.w3.org/2000/svg">
<path fill-rule="evenodd" clip-rule="evenodd" d="M23.892 37.8209C24.1076 37.6047 24.3638 37.4332 24.6458 37.3162C24.9278 37.1992 25.2302 37.1389 25.5355 37.1389C25.8409 37.1389 26.1432 37.1992 26.4253 37.3162C26.7073 37.4332 26.9635 37.6047 27.1791 37.8209L32.4998 43.1463L37.8205 37.8209C38.2564 37.385 38.8477 37.1401 39.4641 37.1401C40.0806 37.1401 40.6718 37.385 41.1077 37.8209C41.5436 38.2568 41.7885 38.848 41.7885 39.4645C41.7885 40.081 41.5436 40.6722 41.1077 41.1081L35.7823 46.4288L41.1077 51.7495C41.5436 52.1854 41.7885 52.7766 41.7885 53.3931C41.7885 54.0095 41.5436 54.6007 41.1077 55.0366C40.6718 55.4725 40.0806 55.7174 39.4641 55.7174C38.8477 55.7174 38.2564 55.4725 37.8205 55.0366L32.4998 49.7113L27.1791 55.0366C26.7432 55.4725 26.152 55.7174 25.5355 55.7174C24.9191 55.7174 24.3279 55.4725 23.892 55.0366C23.4561 54.6007 23.2112 54.0095 23.2112 53.3931C23.2112 52.7766 23.4561 52.1854 23.892 51.7495L29.2173 46.4288L23.892 41.1081C23.6758 40.8924 23.5043 40.6363 23.3872 40.3542C23.2702 40.0722 23.21 39.7698 23.21 39.4645C23.21 39.1591 23.2702 38.8568 23.3872 38.5748C23.5043 38.2927 23.6758 38.0366 23.892 37.8209Z" fill="#DBDBE4"/>
<path d="M32.5 4.64286C35.5784 4.64286 38.5307 5.86575 40.7075 8.04251C42.8843 10.2193 44.1071 13.1716 44.1071 16.25V18.5714H20.8929V16.25C20.8929 13.1716 22.1157 10.2193 24.2925 8.04251C26.4693 5.86575 29.4216 4.64286 32.5 4.64286ZM48.75 18.5714V16.25C48.75 11.9402 47.0379 7.80698 43.9905 4.75951C40.943 1.71205 36.8098 0 32.5 0C28.1902 0 24.057 1.71205 21.0095 4.75951C17.962 7.80698 16.25 11.9402 16.25 16.25V18.5714H0V65C0 67.4627 0.978314 69.8246 2.71972 71.566C4.46113 73.3074 6.82299 74.2857 9.28571 74.2857H55.7143C58.177 74.2857 60.5389 73.3074 62.2803 71.566C64.0217 69.8246 65 67.4627 65 65V18.5714H48.75ZM4.64286 23.2143H60.3571V65C60.3571 66.2314 59.868 67.4123 58.9973 68.283C58.1266 69.1537 56.9456 69.6429 55.7143 69.6429H9.28571C8.05435 69.6429 6.87342 69.1537 6.00272 68.283C5.13201 67.4123 4.64286 66.2314 4.64286 65V23.2143Z" fill="#DBDBE4"/>
</svg>
