<svg width="25" height="25" viewBox="0 0 25 25" fill="none" xmlns="http://www.w3.org/2000/svg">
<path d="M5.88696 6.52016C5.88696 6.10041 6.22724 5.76013 6.64699 5.76013H14.2472C14.667 5.76013 15.0073 6.10041 15.0073 6.52016C15.0073 6.93991 14.667 7.28018 14.2472 7.28018H6.64699C6.22724 7.28018 5.88696 6.93991 5.88696 6.52016Z" fill="black"/>
<path d="M5.88696 10.4799C5.88696 10.0601 6.22724 9.71985 6.64699 9.71985H14.2472C14.667 9.71985 15.0073 10.0601 15.0073 10.4799C15.0073 10.8996 14.667 11.2399 14.2472 11.2399H6.64699C6.22724 11.2399 5.88696 10.8996 5.88696 10.4799Z" fill="black"/>
<path d="M5.88696 14.4799C5.88696 14.0601 6.22724 13.7198 6.64699 13.7198H12.2472C12.667 13.7198 13.0073 14.0601 13.0073 14.4799C13.0073 14.8996 12.667 15.2399 12.2472 15.2399H6.64699C6.22724 15.2399 5.88696 14.8996 5.88696 14.4799Z" fill="black"/>
<path d="M5.88696 18.4799C5.88696 18.0601 6.22724 17.7198 6.64699 17.7198H8.92706C9.34681 17.7198 9.68709 18.0601 9.68709 18.4799C9.68709 18.8996 9.34681 19.2399 8.92706 19.2399H6.64699C6.22724 19.2399 5.88696 18.8996 5.88696 18.4799Z" fill="black"/>
<path d="M21.9308 13.1222L19.6508 10.8422C19.5082 10.6997 19.315 10.6196 19.1134 10.6196C18.9119 10.6196 18.7186 10.6997 18.5761 10.8422L11.7396 17.6787C11.5946 17.8236 11.5132 18.0202 11.5132 18.2252V20.4868C11.5132 20.9137 11.8593 21.2598 12.2862 21.2598H14.5477C14.7528 21.2598 14.9494 21.1784 15.0943 21.0334L21.9308 14.1969C22.0733 14.0544 22.1534 13.8611 22.1534 13.6596C22.1534 13.458 22.0733 13.2648 21.9308 13.1222ZM14.2386 19.7398H13.0332V18.5344L16.8334 14.7342L18.0388 15.9396L14.2386 19.7398ZM19.1134 14.865L17.908 13.6596L19.1134 12.4542L20.3188 13.6596L19.1134 14.865Z" fill="black"/>
<path d="M8.92688 21.6203C8.92688 22.04 8.5866 22.3803 8.16685 22.3803H4.36673C3.96371 22.3799 3.57731 22.2196 3.29234 21.9346C3.00736 21.6496 2.84708 21.2632 2.84668 20.8602V4.13968C2.84708 3.73666 3.00736 3.35026 3.29234 3.06529C3.57731 2.78031 3.96371 2.62003 4.36673 2.61963H16.5271C16.9301 2.62003 17.3165 2.78031 17.6015 3.06529C17.8865 3.35026 18.0468 3.73666 18.0472 4.13968V8.9799C18.0472 9.39965 17.7069 9.73993 17.2872 9.73993C16.8674 9.73993 16.5271 9.39965 16.5271 8.9799V4.13968H4.36673V20.8602H8.16685C8.5866 20.8602 8.92688 21.2005 8.92688 21.6203Z" fill="black"/>
</svg>
