<svg width="19" height="23" viewBox="0 0 19 23" fill="none" xmlns="http://www.w3.org/2000/svg">
<path d="M10.2663 4.06577L8.70868 4.06258C5.15574 4.05408 2.07136 6.94084 2.04692 10.4375V14.4643C2.04692 15.3036 1.94067 16.1228 1.48274 16.8209L1.17781 17.2862C0.713506 17.9917 1.21287 18.9373 2.04692 18.9373H16.9535C17.7876 18.9373 18.2859 17.9917 17.8226 17.2862L17.5177 16.8209C17.0608 16.1228 16.9535 15.3026 16.9535 14.4632V10.4385C16.911 6.94084 13.8192 4.07427 10.2663 4.06577V4.06577Z" stroke="black" stroke-width="1.5" stroke-linecap="round" stroke-linejoin="round"/>
<path d="M12.6878 18.9372C12.6878 19.7826 12.3519 20.5933 11.7542 21.1911C11.1564 21.7888 10.3457 22.1246 9.50031 22.1246C8.65495 22.1246 7.84421 21.7888 7.24645 21.1911C6.64868 20.5933 6.31287 19.7826 6.31287 18.9372" stroke="black" stroke-width="1.5" stroke-linecap="round" stroke-linejoin="round"/>
<path d="M9.50008 0.875244C10.0637 0.875244 10.6042 1.09912 11.0027 1.49763C11.4012 1.89614 11.625 2.43663 11.625 3.00021V4.06269H7.37512V3.00021C7.37512 2.43663 7.599 1.89614 7.99751 1.49763C8.39602 1.09912 8.93651 0.875244 9.50008 0.875244Z" stroke="black" stroke-width="1.5" stroke-linecap="round" stroke-linejoin="round"/>
</svg>
