<svg width="120" height="28" viewBox="0 0 120 28" fill="none" xmlns="http://www.w3.org/2000/svg">
<path d="M36.1 9.65C36.1 8.58333 36.3167 7.64167 36.75 6.825C37.1833 5.99167 37.775 5.29167 38.525 4.725C39.275 4.15833 40.1583 3.73333 41.175 3.45C42.1917 3.15 43.2917 3 44.475 3C45.6583 3 46.7583 3.15 47.775 3.45C48.7917 3.73333 49.675 4.15833 50.425 4.725C51.175 5.29167 51.7667 5.99167 52.2 6.825C52.6333 7.64167 52.85 8.58333 52.85 9.65C52.85 10.7167 52.6333 11.6667 52.2 12.5C51.7667 13.3167 51.175 14.0083 50.425 14.575C49.675 15.1417 48.7917 15.575 47.775 15.875C46.7583 16.1583 45.6583 16.3 44.475 16.3C43.2917 16.3 42.1917 16.1583 41.175 15.875C40.1583 15.575 39.275 15.1417 38.525 14.575C37.775 14.0083 37.1833 13.3167 36.75 12.5C36.3167 11.6667 36.1 10.7167 36.1 9.65ZM52.125 17.15C52.425 17.15 52.6333 17.2 52.75 17.3C52.8833 17.4 52.95 17.5917 52.95 17.875V20.225C52.95 20.5083 52.8833 20.7 52.75 20.8C52.6333 20.9 52.425 20.95 52.125 20.95L46.6 21.05V24.025C46.6 24.4583 46.5333 24.75 46.4 24.9C46.2833 25.0667 46.0333 25.15 45.65 25.15H43.3C42.9167 25.15 42.6583 25.0667 42.525 24.9C42.4083 24.75 42.35 24.4583 42.35 24.025V21.125L36.825 21.2C36.525 21.2 36.3083 21.15 36.175 21.05C36.0583 20.95 36 20.7583 36 20.475V18.125C36 17.8417 36.0583 17.65 36.175 17.55C36.3083 17.45 36.525 17.4 36.825 17.4L52.125 17.15ZM44.475 12.75C45.675 12.75 46.6167 12.4667 47.3 11.9C48 11.3333 48.35 10.5833 48.35 9.65C48.35 8.71667 48 7.96667 47.3 7.4C46.6167 6.83333 45.675 6.55 44.475 6.55C43.275 6.55 42.325 6.83333 41.625 7.4C40.9417 7.96667 40.6 8.71667 40.6 9.65C40.6 10.5833 40.9417 11.3333 41.625 11.9C42.325 12.4667 43.275 12.75 44.475 12.75Z" fill="#FED07A"/>
<path d="M59.8937 6.7L59.9187 8.425L71.3437 8.2C71.6937 8.18333 71.9187 8.25 72.0187 8.4C72.1187 8.55 72.1687 8.81667 72.1687 9.2V10.7C72.1687 11.0833 72.1187 11.35 72.0187 11.5C71.9187 11.6333 71.6937 11.7 71.3437 11.7L66.1437 11.8V13L71.6687 12.9C71.9687 12.9 72.177 12.95 72.2937 13.05C72.427 13.15 72.4937 13.3417 72.4937 13.625V15.725C72.4937 16.0083 72.427 16.2 72.2937 16.3C72.177 16.4 71.9687 16.45 71.6687 16.45L56.3687 16.7C56.0687 16.7 55.852 16.65 55.7187 16.55C55.602 16.45 55.5437 16.2583 55.5437 15.975V13.875C55.5437 13.5917 55.602 13.4 55.7187 13.3C55.852 13.2 56.0687 13.15 56.3687 13.15L61.8937 13.075V11.875L56.8187 11.95C56.4687 11.95 56.227 11.8583 56.0937 11.675C55.9604 11.4917 55.8854 11.2083 55.8687 10.825L55.6437 4.375C55.627 3.94167 55.6854 3.65 55.8187 3.5C55.9687 3.33333 56.227 3.25 56.5937 3.25L71.5437 3C71.9104 3 72.1354 3.05833 72.2187 3.175C72.3187 3.29167 72.3687 3.56667 72.3687 4V5.45C72.3687 5.88333 72.3187 6.15833 72.2187 6.275C72.1354 6.375 71.9104 6.43333 71.5437 6.45L59.8937 6.7ZM64.0187 27.025C62.8854 27.025 61.902 26.9 61.0687 26.65C60.2354 26.4 59.552 26.0583 59.0187 25.625C58.4854 25.1917 58.0854 24.6833 57.8187 24.1C57.5687 23.5167 57.4437 22.8917 57.4437 22.225C57.4437 21.5583 57.5687 20.9333 57.8187 20.35C58.0854 19.7667 58.4854 19.2583 59.0187 18.825C59.552 18.3917 60.2354 18.05 61.0687 17.8C61.902 17.55 62.8854 17.425 64.0187 17.425C65.1687 17.425 66.152 17.55 66.9687 17.8C67.802 18.05 68.4854 18.3917 69.0187 18.825C69.552 19.2583 69.9437 19.7667 70.1937 20.35C70.4604 20.9333 70.5937 21.5583 70.5937 22.225C70.5937 22.8917 70.4604 23.5167 70.1937 24.1C69.9437 24.6833 69.552 25.1917 69.0187 25.625C68.4854 26.0583 67.802 26.4 66.9687 26.65C66.152 26.9 65.1687 27.025 64.0187 27.025ZM64.0187 23.975C64.902 23.975 65.527 23.8 65.8937 23.45C66.277 23.1167 66.4687 22.7083 66.4687 22.225C66.4687 21.7417 66.277 21.3333 65.8937 21C65.527 20.65 64.902 20.475 64.0187 20.475C63.1354 20.475 62.502 20.65 62.1187 21C61.752 21.3333 61.5687 21.7417 61.5687 22.225C61.5687 22.7083 61.752 23.1167 62.1187 23.45C62.502 23.8 63.1354 23.975 64.0187 23.975Z" fill="#FED07A"/>
<path d="M76.0624 22.4C75.7124 22.4167 75.4624 22.3417 75.3124 22.175C75.179 22.0083 75.1124 21.7083 75.1124 21.275L74.8624 4.475C74.8624 4.19167 74.9207 4.00833 75.0374 3.925C75.1707 3.825 75.3874 3.76667 75.6874 3.75L86.4624 3.5C86.8457 3.48333 87.104 3.55833 87.2374 3.725C87.3707 3.89167 87.429 4.19167 87.4124 4.625L86.8874 21.025C86.8707 21.4583 86.7957 21.75 86.6624 21.9C86.5457 22.05 86.304 22.1333 85.9374 22.15L76.0624 22.4ZM88.9874 5.125C88.9874 4.69167 89.054 4.4 89.1874 4.25C89.3374 4.08333 89.5874 4 89.9374 4H92.2874C92.654 4 92.904 4.08333 93.0374 4.25C93.1707 4.4 93.2374 4.69167 93.2374 5.125V10.85L94.9124 10.8C95.2124 10.7833 95.4207 10.8333 95.5374 10.95C95.6707 11.05 95.7374 11.2417 95.7374 11.525V13.875C95.7374 14.1583 95.6707 14.35 95.5374 14.45C95.4207 14.5333 95.2124 14.5833 94.9124 14.6L93.2374 14.65V20.525C93.2374 20.9583 93.1707 21.2583 93.0374 21.425C92.904 21.575 92.654 21.65 92.2874 21.65H89.9374C89.5874 21.65 89.3374 21.575 89.1874 21.425C89.054 21.2583 88.9874 20.9583 88.9874 20.525V5.125ZM78.9874 7.525L79.1124 18.575L83.0124 18.475L83.2124 7.425L78.9874 7.525Z" fill="#FED07A"/>
<path d="M107.259 3.25C107.642 3.23333 107.901 3.30833 108.034 3.475C108.184 3.64167 108.242 3.94167 108.209 4.375L107.959 7.675L109.609 7.625V4.875C109.609 4.44167 109.676 4.15 109.809 4C109.959 3.83333 110.209 3.75 110.559 3.75H112.909C113.276 3.75 113.526 3.83333 113.659 4C113.792 4.15 113.859 4.44167 113.859 4.875V14.775C113.859 15.2083 113.792 15.5083 113.659 15.675C113.526 15.825 113.276 15.9 112.909 15.9H110.559C110.209 15.9 109.959 15.825 109.809 15.675C109.676 15.5083 109.609 15.2083 109.609 14.775V11.425L107.684 11.475L107.434 15.025C107.401 15.425 107.326 15.6833 107.209 15.8C107.092 15.9167 106.851 15.975 106.484 15.975H103.859C103.526 15.975 103.301 15.925 103.184 15.825C103.067 15.7083 103.026 15.475 103.059 15.125L103.209 13.075L98.559 13.2C98.259 13.2167 98.0423 13.175 97.909 13.075C97.7923 12.9583 97.734 12.7583 97.734 12.475V10.25C97.734 9.96667 97.7923 9.78333 97.909 9.7C98.0423 9.6 98.259 9.54167 98.559 9.525L103.459 9.35L103.634 7.15L97.984 7.3C97.684 7.31667 97.4673 7.275 97.334 7.175C97.2173 7.05833 97.159 6.85833 97.159 6.575V4.225C97.159 3.94167 97.2173 3.75833 97.334 3.675C97.4673 3.575 97.684 3.51667 97.984 3.5L107.259 3.25ZM111.734 19.175C111.734 19.6583 111.801 19.9917 111.934 20.175C112.084 20.3583 112.301 20.5333 112.584 20.7L116.834 23C117.251 23.2333 117.334 23.575 117.084 24.025L115.934 26.075C115.801 26.3083 115.651 26.45 115.484 26.5C115.317 26.55 115.084 26.4917 114.784 26.325L109.609 23.5L104.384 26.575C104.084 26.7583 103.851 26.8167 103.684 26.75C103.517 26.7 103.367 26.5583 103.234 26.325L102.084 24.275C101.834 23.825 101.917 23.4833 102.334 23.25L106.584 20.95C106.867 20.7833 107.076 20.6083 107.209 20.425C107.359 20.2417 107.434 19.9083 107.434 19.425V18.35C107.434 17.9167 107.501 17.625 107.634 17.475C107.784 17.3083 108.034 17.225 108.384 17.225H110.784C111.151 17.225 111.401 17.3083 111.534 17.475C111.667 17.625 111.734 17.9167 111.734 18.35V19.175ZM115.059 4.625C115.059 4.19167 115.126 3.9 115.259 3.75C115.409 3.58333 115.659 3.5 116.009 3.5H118.359C118.726 3.5 118.976 3.58333 119.109 3.75C119.242 3.9 119.309 4.19167 119.309 4.625V14.525C119.309 14.9583 119.242 15.2583 119.109 15.425C118.976 15.575 118.726 15.65 118.359 15.65H116.009C115.659 15.65 115.409 15.575 115.259 15.425C115.126 15.2583 115.059 14.9583 115.059 14.525V4.625Z" fill="#FED07A"/>
<path fill-rule="evenodd" clip-rule="evenodd" d="M13.3091 4.13382L0 15.8488L1.01085 17.0556L3.57468 14.7989V28H25.7715V15.1036L27.9892 17.0556L29 15.8488L15.6909 4.13382L19.0162 1.20683L18.0054 0L14.5 3.08552L10.9946 0L9.98378 1.20683L13.3091 4.13382ZM14.5 5.18213L24.2078 13.7272V26.4306H5.13838V13.4225L14.5 5.18213Z" fill="#FED07A"/>
<path fill-rule="evenodd" clip-rule="evenodd" d="M11.2855 15.2244C11.9735 15.2244 12.5312 14.6988 12.5312 14.0504C12.5312 13.402 11.9735 12.8764 11.2855 12.8764C10.5976 12.8764 10.0398 13.402 10.0398 14.0504C10.0398 14.6988 10.5976 15.2244 11.2855 15.2244ZM11.2855 16.07C12.4691 16.07 13.4285 15.1658 13.4285 14.0504C13.4285 12.935 12.4691 12.0308 11.2855 12.0308C10.102 12.0308 9.14258 12.935 9.14258 14.0504C9.14258 15.1658 10.102 16.07 11.2855 16.07Z" fill="#FED07A"/>
<path fill-rule="evenodd" clip-rule="evenodd" d="M18.6075 19.2639C18.9996 19.2639 19.3174 18.9643 19.3174 18.5948C19.3174 18.2253 18.9996 17.9257 18.6075 17.9257C18.2154 17.9257 17.8975 18.2253 17.8975 18.5948C17.8975 18.9643 18.2154 19.2639 18.6075 19.2639ZM18.6075 20.1095C19.4951 20.1095 20.2147 19.4313 20.2147 18.5948C20.2147 17.7582 19.4951 17.0801 18.6075 17.0801C17.7198 17.0801 17.0002 17.7582 17.0002 18.5948C17.0002 19.4313 17.7198 20.1095 18.6075 20.1095Z" fill="#FED07A"/>
<path fill-rule="evenodd" clip-rule="evenodd" d="M7.26538 16.6567H15.3058V17.5023H11.8193V20.6623H8.16263V22.6606H13.048V18.3947H13.9452V25.5808H13.048V23.5062H7.26538V19.8167H10.922V17.5023H7.26538V16.6567Z" fill="#FED07A"/>
<path fill-rule="evenodd" clip-rule="evenodd" d="M15.48 11.9443H21.7346V12.7899H16.3772V14.2137H19.1512V15.6469H21.7346V16.4926H18.2539V15.0593H15.48V11.9443Z" fill="#FED07A"/>
<path fill-rule="evenodd" clip-rule="evenodd" d="M21.7348 18.3398V25.859L19.7661 23.9605V21.4556H19.5919V23.0055H15.123V18.379H16.0203V22.1599H18.6946V20.6099H20.6634V23.6159L20.8376 23.7839V18.3398H21.7348Z" fill="#FED07A"/>
</svg>
